<svg id="Layer_1" data-name="Layer 1" xmlns="http://www.w3.org/2000/svg" viewBox="0 0 1440 700"><defs><style>.cls-1{fill:#171414;}.cls-2{fill:#64d26e;}.cls-3{fill:none;stroke:#283edd;stroke-linecap:round;stroke-linejoin:round;stroke-width:0;}.cls-4{fill:#181414;}.cls-5{fill:#606060;}</style></defs><title>Artboard 1v-1</title><polygon class="cls-1" points="1440 -82.3 1170 -82.3 270 817.7 1440 817.7 1440 -82.3"/><polygon class="cls-2" points="0 -82.3 0 817.7 270 817.7 1170 -82.3 0 -82.3"/><line class="cls-3" x1="1170" y1="-82.3" x2="270" y2="817.7"/><circle class="cls-2" cx="716.5" cy="381.2" r="129.5"/><path class="cls-4" d="M810,361.19a14.36,14.36,0,0,1-18.14,6.6c-23.91-9.57-49.07-16.78-75-18.93a261.05,261.05,0,0,0-71.26,3.86c-7.37,1.42-14.62-2.88-16.5-9.85h0a13.5,13.5,0,0,1,10.81-16.61A290.18,290.18,0,0,1,719.32,322c28.79,2.39,56.75,10.25,83.33,20.88,7.48,3,10.85,11.35,7.33,18.35Z"/><path class="cls-4" d="M792.48,401.44c-2.74,5.12-9.47,7.4-15.31,5.22-20.16-7.56-43.29-17.1-65.13-18.8a234.81,234.81,0,0,0-60.1,3.05c-6.21,1.12-12.33-2.28-13.91-7.78h0c-1.7-5.9,2.45-11.9,9.11-13.11a261,261,0,0,1,67-3.41c24.27,1.89,49.78,11.95,72.19,20.35,6.31,2.36,9.16,9,6.19,14.49Z"/><path class="cls-4" d="M777.07,434.86c-2.42,4.5-8.35,6.52-13.49,4.59-17.77-6.66-36.47-11.68-55.71-13.17a206.89,206.89,0,0,0-53,2.68c-5.48,1-10.87-2-12.27-6.86h0c-1.49-5.2,2.17-10.49,8-11.56a229.93,229.93,0,0,1,59-3c21.39,1.66,42.18,7.14,61.93,14.54,5.57,2.08,8.07,7.9,5.46,12.77Z"/><rect class="cls-5" x="-7.5" y="-115.8" width="1449.5" height="116"/></svg>