<svg data-name="Layer 1" xmlns="http://www.w3.org/2000/svg" viewBox="0 0 1440 800"><path fill="#171414" d="M1440-48.01h-270l-900 900h1170v-900z"/><path fill="#1db954" d="M0-48.01v900h270l900-900H0z"/><path fill="none" stroke="#283edd" stroke-linecap="round" stroke-linejoin="round" stroke-width="0" d="M1170-48.01l-900 900"/><circle cx="716.5" cy="415.49" r="129.5" fill="#64d26e"/><path d="M810 395.48a14.36 14.36 0 01-18.14 6.6c-23.91-9.57-49.07-16.78-75-18.93a261.05 261.05 0 00-71.24 3.85c-7.37 1.42-14.62-2.88-16.5-9.86a13.49 13.49 0 0110.81-16.6 290.18 290.18 0 0179.39-4.31c28.79 2.39 56.75 10.25 83.33 20.88 7.48 3 10.85 11.35 7.33 18.35zm-17.52 40.25c-2.74 5.12-9.47 7.4-15.31 5.21-20.17-7.55-43.29-17.09-65.17-18.79a234.81 234.81 0 00-60.1 3.05c-6.21 1.12-12.33-2.28-13.91-7.79-1.7-5.9 2.45-11.9 9.11-13.11a261 261 0 0167-3.41c24.27 1.89 49.78 11.95 72.19 20.35 6.31 2.36 9.16 9 6.19 14.49zm-15.41 33.41c-2.42 4.51-8.35 6.53-13.49 4.6-17.77-6.66-36.47-11.68-55.71-13.17a206.89 206.89 0 00-53 2.68c-5.48 1-10.87-2-12.27-6.86-1.49-5.2 2.17-10.49 8-11.56a229.93 229.93 0 0159-3c21.39 1.66 42.18 7.14 61.93 14.54 5.57 2.08 8.07 7.9 5.46 12.77z" fill="#181414"/></svg>